<svg width="500" height="500" viewBox="0 0 500 500" fill="none" xmlns="http://www.w3.org/2000/svg">
<rect width="500" height="500" rx="125" fill="#2F2F2F"/>
<g clip-path="url(#clip0_1672_20569)">
<path d="M343.917 117.188H74.2188V121.217C79.8636 121.46 84.5267 122.38 88.2082 123.948C91.8896 125.544 95.0256 127.41 97.6163 129.601C100.207 131.791 102.225 133.982 103.697 136.172C105.17 138.363 106.288 140.202 107.024 141.662C108.497 144.583 109.915 147.396 111.251 150.073C112.587 152.75 113.951 155.563 115.314 158.484C116.651 161.404 118.069 164.568 119.541 167.976C121.014 171.383 122.595 175.413 124.341 180.037C130.476 195.642 136.612 211.165 142.775 226.634C148.911 242.103 155.292 258.113 161.946 274.691C168.572 291.269 175.39 308.496 182.398 326.399C189.406 344.302 196.96 363.125 205.059 382.84H209.477L227.53 346.303C232.929 332.43 238.656 317.745 244.655 302.276C250.682 286.807 256.736 271.392 262.899 256.058C263.635 254.192 264.398 252.353 265.135 250.487C266.498 252.65 267.725 254.652 268.871 256.409C271.325 260.304 272.798 262.629 273.288 263.36C273.288 276.773 273.234 288.159 273.098 297.516C272.961 306.9 272.798 314.986 272.552 321.801C272.552 325.696 272.498 329.725 272.361 333.863C272.225 338.001 271.979 341.895 271.625 345.546C271.27 349.197 270.752 352.496 270.152 355.417C269.525 358.338 268.625 360.42 267.398 361.637C261.999 367.722 256.899 371.562 252.1 373.158C247.3 374.753 241.71 375.889 235.329 376.619V380.27H348.799V376.619C343.399 375.646 337.754 374.321 331.864 372.59C325.974 370.886 321.174 367.343 317.493 361.989C315.529 359.311 314.357 354.633 314.002 347.926C313.648 341.219 313.457 334.35 313.457 327.291V253.84C316.402 249.459 320.465 243.374 325.619 235.586C330.773 227.797 336.118 219.63 341.654 211.111C347.19 202.592 352.589 194.371 357.852 186.447C363.142 178.523 367.26 172.249 370.205 167.624C374.623 160.809 378.741 154.724 382.559 149.37C386.376 144.015 390.358 139.391 394.53 135.496C398.702 131.602 403.256 128.438 408.165 126.004C413.073 123.57 418.964 121.866 425.863 120.893V117.188H343.999H343.917ZM247.818 128.708C249.782 126.869 252.372 125.409 255.563 124.327C258.754 123.218 262.19 122.434 265.871 121.947C265.926 121.947 265.98 121.947 266.062 121.947C266.989 122.109 267.971 122.299 268.953 122.515C273.016 123.381 276.861 124.598 280.569 126.166C284.251 127.762 287.332 129.763 289.787 132.197C292.241 134.631 293.468 137.687 293.468 141.338C293.468 144.015 292.732 148.829 291.259 155.779C289.787 162.729 286.596 172.898 281.688 186.285C280.324 189.881 278.988 193.424 277.652 196.94C275.361 193.208 273.125 189.584 271.052 186.095C267.371 179.875 264.18 174.575 261.481 170.194C257.554 163.622 253.79 157.104 250.245 150.641C246.673 144.177 244.901 139.363 244.901 136.199C244.901 133.035 245.882 130.547 247.846 128.708H247.818ZM245.746 279.802C240.701 292.459 236.529 303.06 233.229 311.579C229.902 320.098 227.639 325.723 226.412 328.4C223.712 321.098 220.03 311.714 215.367 300.275C210.704 288.835 205.714 276.476 200.451 263.197C195.16 249.919 189.815 236.397 184.416 222.632C179.017 208.866 174.163 196.21 169.854 184.635C165.545 173.06 162.055 163.216 159.355 155.049C156.655 146.882 155.292 141.716 155.292 139.526C155.292 135.875 156.574 132.819 159.164 130.385C161.755 127.951 164.7 126.058 168 124.733C170.045 123.921 172.036 123.272 174.026 122.759C175.526 123.354 176.999 124.03 178.362 124.895C182.18 127.329 186.025 130.628 189.979 134.766C193.906 138.904 197.778 143.907 201.596 149.748C205.414 155.59 209.641 162.053 214.304 169.112C216.758 172.763 219.84 177.522 223.521 183.364C227.202 189.205 231.129 195.48 235.302 202.186C239.474 208.893 243.701 215.762 248.009 222.821C252.291 229.879 256.245 236.289 259.79 241.995C259.926 242.238 260.063 242.428 260.199 242.671C254.936 256.355 250.109 268.741 245.719 279.829L245.746 279.802ZM370.505 147.504C369.524 150.424 368.351 153.291 367.015 156.077C365.651 158.889 364.261 161.567 362.788 164.109C361.315 166.678 359.952 168.922 358.725 170.87C356.516 174.764 353.243 180.119 348.962 186.934C344.654 193.749 340.127 200.888 335.327 208.298C330.528 215.735 325.81 223.037 321.147 230.231C316.484 237.425 312.557 243.32 309.366 247.945C305.44 241.373 301.185 234.423 296.659 227.121C292.105 219.819 287.632 212.679 283.215 205.756C283.215 205.756 283.215 205.756 283.215 205.729C288.232 193.451 292.895 182.147 297.177 171.978C300.122 164.92 302.767 159.078 305.112 154.427C307.43 149.802 309.475 145.962 311.193 142.906C312.911 139.877 314.439 137.552 315.802 135.956C317.138 134.387 318.202 133.225 318.938 132.494C319.674 131.521 322.429 129.574 327.228 126.653C331.919 123.786 337.372 122.001 343.617 121.244C346.153 121.623 348.744 122.028 351.416 122.461C355.098 123.083 358.479 123.976 361.561 125.192C364.615 126.409 367.151 128.113 369.115 130.304C371.078 132.494 372.06 135.55 372.06 139.445C372.06 141.879 371.569 144.556 370.587 147.477L370.505 147.504Z" fill="white"/>
</g>
<defs>
<clipPath id="clip0_1672_20569">
<rect width="351.562" height="265.625" fill="white" transform="translate(74.2188 117.188)"/>
</clipPath>
</defs>
</svg>
