<svg preserveAspectRatio="none" overflow="visible" style="display: block;" width="29.187" height="32.8838" viewBox="0 0 29.187 32.8838" fill="none" xmlns="http://www.w3.org/2000/svg">
<path id="Back" d="M3.0791 0V14.2549L26.0186 0.371094C26.4136 0.181484 26.888 0.0943659 27.3623 0.124023C27.6038 0.0780973 27.8581 0.0780973 28.0996 0.124023C28.4404 0.231035 28.7271 0.409951 28.9209 0.636719C29.1147 0.863485 29.2063 1.12748 29.1836 1.39258V31.4912C29.2063 31.7563 29.1147 32.0203 28.9209 32.2471C28.7271 32.4738 28.4403 32.6528 28.0996 32.7598C27.7549 32.8615 27.3767 32.8924 27.0088 32.8486C26.6411 32.8049 26.2982 32.6876 26.0186 32.5117L3.0791 18.6279V32.8838H0V0H3.0791ZM4.42285 16.457L26.1045 29.79V3.21777L4.42285 16.457Z" fill="white"/>
</svg>
