<svg width="24" height="24" viewBox="0 0 24 24" fill="none" xmlns="http://www.w3.org/2000/svg">
<g clip-path="url(#clip0_3_29)">
<mask id="mask0_3_29" style="mask-type:alpha" maskUnits="userSpaceOnUse" x="0" y="0" width="24" height="24">
<rect width="24" height="24" fill="#D9D9D9"/>
</mask>
<g mask="url(#mask0_3_29)">
<path d="M17.073 12.5H5.5C5.35767 12.5 5.23875 12.4522 5.14325 12.3567C5.04775 12.2612 5 12.1423 5 12C5 11.8577 5.04775 11.7387 5.14325 11.6432C5.23875 11.5477 5.35767 11.5 5.5 11.5H17.073L13.3385 7.76549C13.241 7.66799 13.19 7.55324 13.1855 7.42124C13.181 7.28907 13.232 7.1679 13.3385 7.05774C13.4487 6.9474 13.5676 6.89132 13.6953 6.88949C13.8228 6.88749 13.9417 6.94165 14.052 7.05199L18.4345 11.4345C18.5218 11.5218 18.5831 11.611 18.6182 11.702C18.6536 11.793 18.6712 11.8923 18.6712 12C18.6712 12.1077 18.6536 12.207 18.6182 12.298C18.5831 12.389 18.5218 12.4782 18.4345 12.5655L14.052 16.948C13.9545 17.0455 13.8387 17.0965 13.7048 17.101C13.5708 17.1055 13.4487 17.0526 13.3385 16.9422C13.232 16.8321 13.1778 16.7142 13.176 16.5885C13.174 16.4628 13.2282 16.3448 13.3385 16.2345L17.073 12.5Z" fill="#1C1B1F"/>
</g>
</g>
<defs>
<clipPath id="clip0_3_29">
<rect width="24" height="24" fill="white"/>
</clipPath>
</defs>
</svg>
