<svg preserveAspectRatio="none" width="100%" height="100%" overflow="visible" style="display: block;" viewBox="0 0 324.232 291.726" fill="none" xmlns="http://www.w3.org/2000/svg">
<path id="04" opacity="0.3" d="M161.281 8.57044C193.918 24.5782 192.511 57.127 221.648 76.3347C240.58 88.8134 253.29 88.0051 278.367 98.8922C312.2 113.583 321.779 152.944 322.56 165.277C323.49 179.981 330.428 220.238 306.994 250.062C287.303 275.119 257.175 283.906 228.449 289.039C203.849 293.435 182.914 291.848 160.355 288.485C139.618 285.398 119.464 282.015 103.002 274.961C76.5958 263.695 59.229 247.741 48.9377 238.32C21.6483 213.351 0.126489 194.243 0.00213498 165.273C-0.233709 126.237 19.1184 130.345 34.0795 96.5798C51.4376 57.4895 39.0451 41.7609 70.4724 16.041C93.9668 -3.18746 134.789 -4.42492 161.281 8.57044Z" fill="url(#paint0_radial_0_60)"/>
<defs>
<radialGradient id="paint0_radial_0_60" cx="0" cy="0" r="1" gradientTransform="matrix(18.4265 201.979 -282.336 27.4596 147.971 166.234)" gradientUnits="userSpaceOnUse">
<stop stop-color="white"/>
<stop offset="0.426666" stop-color="#FFE633"/>
<stop offset="0.611666" stop-color="#ED4D33"/>
</radialGradient>
</defs>
</svg>
