<svg preserveAspectRatio="none" width="100%" height="100%" overflow="visible" style="display: block;" viewBox="0 0 300.061 278.39" fill="none" xmlns="http://www.w3.org/2000/svg">
<path id="02" opacity="0.3" d="M149.989 2.98163C181.667 10.8461 195.161 32.1069 221.219 49.9228C238.202 61.5363 250.852 68.0012 268.23 81.2225C291.185 98.6886 299.565 130.03 299.972 148.729C300.422 169.457 299.839 202.023 281.261 227.449C264.231 250.755 239.056 264.018 212.53 271.866C191.466 278.102 171.139 279.385 149.526 277.731C129.014 276.16 109.3 272.378 92.3855 265.047C69.105 255 51.83 240.174 39.6433 227.332C16.7357 203.185 0.065165 179.129 0.000866072 148.725C-0.119159 118.229 12.2562 109.915 24.5287 83.8718C38.9746 53.3053 41.4994 36.0392 68.0548 16.8112C90.3322 0.682271 123.335 -3.63737 149.984 2.97747L149.989 2.98163Z" fill="url(#paint0_radial_0_66)"/>
<defs>
<radialGradient id="paint0_radial_0_66" cx="0" cy="0" r="1" gradientTransform="matrix(200.669 63.0023 -82.4029 273.264 139.4 161.001)" gradientUnits="userSpaceOnUse">
<stop offset="0.237887" stop-color="#E47250"/>
<stop offset="0.413555" stop-color="#FAFF00"/>
<stop offset="0.561666" stop-color="#FF4500"/>
</radialGradient>
</defs>
</svg>
