<svg preserveAspectRatio="none" width="100%" height="100%" overflow="visible" style="display: block;" viewBox="0 0 349.654 307.562" fill="none" xmlns="http://www.w3.org/2000/svg">
<path id="06" opacity="0.3" d="M172.321 14.9843C205.729 39.3053 189.573 82.9447 221.743 103.529C242.588 116.871 255.369 108.648 288.069 117.337C332.754 129.046 343.603 176.613 344.635 182.561C346.142 191.246 360.61 239.258 332.235 273.364C310.015 300.234 274.869 304.274 244.002 306.881C215.892 309.256 194.374 305.057 170.929 299.913C149.985 295.381 129.431 292.328 113.456 285.555C83.9717 273.08 66.2701 256.278 58.1495 250.009C25.7872 225.026 0.187736 210.081 0.00356715 182.565C-0.351921 135.01 25.9414 151.542 43.5659 110.065C63.8073 62.4724 36.6831 48.448 72.7802 16.0923C97.5616 -6.12104 145.917 -4.23417 172.321 14.9843Z" fill="url(#paint0_radial_0_65)"/>
<defs>
<radialGradient id="paint0_radial_0_65" cx="0" cy="0" r="1" gradientTransform="matrix(19.8713 212.943 -304.473 28.9502 159.572 175.258)" gradientUnits="userSpaceOnUse">
<stop stop-color="white"/>
<stop offset="0.476666" stop-color="#FFCF54"/>
<stop offset="1" stop-color="#FFD600"/>
</radialGradient>
</defs>
</svg>
