<svg preserveAspectRatio="none" width="100%" height="100%" overflow="visible" style="display: block;" viewBox="0 0 362.99 316.314" fill="none" xmlns="http://www.w3.org/2000/svg">
<path id="07" opacity="0.3" d="M73.9928 16.2812C99.4653 -7.41533 151.55 -3.96523 177.978 18.3563C211.74 46.8737 188.259 96.0543 221.974 117.342C243.797 131.122 256.584 119.251 293.157 126.78C343.258 137.093 354.936 188.665 355.951 191.457C357.99 197.082 375.932 249.005 345.121 285.318C321.572 313.073 283.946 314.719 251.979 316.119C222.103 317.427 200.276 311.944 176.358 305.935C155.298 300.644 134.525 297.789 118.773 291.152C87.7272 278.064 69.7945 260.934 62.8031 256.134C27.4003 231.833 0.222785 218.258 0.00430214 191.457C-0.411243 139.618 29.3709 162.373 48.3404 117.017C70.0344 65.1493 35.5827 52.0114 73.9885 16.277L73.9928 16.2812Z" fill="url(#paint0_radial_0_58)"/>
<defs>
<radialGradient id="paint0_radial_0_58" cx="0" cy="0" r="1" gradientTransform="matrix(137.736 145.655 -210.045 199.064 48.5515 253.593)" gradientUnits="userSpaceOnUse">
<stop offset="0.0416663" stop-color="#E47250"/>
<stop offset="0.57625" stop-color="#FAFF00"/>
<stop offset="1" stop-color="#E47250"/>
</radialGradient>
</defs>
</svg>
