<svg preserveAspectRatio="none" width="100%" height="100%" overflow="visible" style="display: block;" viewBox="0 0 311.73 284.641" fill="none" xmlns="http://www.w3.org/2000/svg">
<path id="03" opacity="0.3" d="M155.58 5.61067C187.736 17.5134 193.766 44.4518 221.358 62.9662C239.307 75.0147 251.98 77.8561 273.203 89.8963C301.58 105.994 310.554 141.323 311.154 156.842C311.84 174.557 315.011 210.961 294.02 238.599C275.659 262.775 248.033 273.836 220.407 280.298C197.589 285.635 176.962 285.456 154.881 282.956C134.267 280.619 114.338 277.044 97.6575 269.854C72.8213 259.197 55.5496 243.769 44.2737 232.675C19.2532 208.061 0.0957352 186.53 0.00144776 156.846C-0.17427 122.08 15.6789 119.976 29.2948 90.0713C45.1908 55.2422 40.2407 38.7233 69.2427 16.2677C92.1074 -1.43014 129.029 -4.21313 155.58 5.61484V5.61067Z" fill="url(#paint0_radial_0_70)"/>
<defs>
<radialGradient id="paint0_radial_0_70" cx="0" cy="0" r="1" gradientTransform="matrix(15.1597 194.654 -268.144 23.2398 144.821 164.617)" gradientUnits="userSpaceOnUse">
<stop offset="0.416922" stop-color="#E47250"/>
<stop offset="0.651236" stop-color="#FAFF00"/>
<stop offset="0.724665" stop-color="#E47250"/>
</radialGradient>
</defs>
</svg>
