<svg preserveAspectRatio="none" width="100%" height="100%" overflow="visible" style="display: block;" viewBox="0 0 288.392 273.389" fill="none" xmlns="http://www.w3.org/2000/svg">
<path id="01" opacity="0.3" d="M144.192 0.910353C175.343 4.80686 196.275 20.3345 220.773 37.4666C236.763 48.6519 249.411 58.7119 262.892 73.1561C280.446 91.9635 288.178 119.368 288.384 141.264C288.606 165.018 284.295 193.777 268.12 216.997C252.472 239.468 229.725 254.854 204.358 264.164C185.049 271.248 165.081 274.099 143.961 273.24C123.582 272.486 104.11 268.444 86.9888 260.972C65.2909 251.528 47.9343 237.376 34.9618 222.698C14.0817 199.065 0.0302711 172.402 0.000301678 141.264C-0.0596373 115.022 8.81989 100.486 19.7373 78.2945C32.7141 51.9691 42.7453 34.016 66.7766 17.9383C88.4745 3.42328 117.476 -2.42772 144.188 0.914518L144.192 0.910353Z" fill="var(--fill-0, #E25961)"/>
</svg>
