<svg preserveAspectRatio="none" width="100%" height="100%" overflow="visible" style="display: block;" viewBox="0 0 31.1904 34.656" fill="none" xmlns="http://www.w3.org/2000/svg">
<path id="graphic_eq" d="M6.93121 25.992V8.66401C6.93121 8.17305 7.09727 7.76151 7.42939 7.42938C7.76151 7.09726 8.17305 6.9312 8.66401 6.9312C9.15497 6.9312 9.56651 7.09726 9.89863 7.42938C10.2307 7.76151 10.3968 8.17305 10.3968 8.66401V25.992C10.3968 26.483 10.2307 26.8945 9.89863 27.2266C9.56651 27.5588 9.15497 27.7248 8.66401 27.7248C8.17305 27.7248 7.76151 27.5588 7.42939 27.2266C7.09727 26.8945 6.93121 26.483 6.93121 25.992ZM13.8624 32.9232V1.7328C13.8624 1.24184 14.0285 0.830301 14.3606 0.49818C14.6927 0.16606 15.1043 0 15.5952 0C16.0862 0 16.4977 0.16606 16.8298 0.49818C17.162 0.830301 17.328 1.24184 17.328 1.7328V32.9232C17.328 33.4142 17.162 33.8257 16.8298 34.1578C16.4977 34.49 16.0862 34.656 15.5952 34.656C15.1043 34.656 14.6927 34.49 14.3606 34.1578C14.0285 33.8257 13.8624 33.4142 13.8624 32.9232ZM0 19.0608V15.5952C0 15.1043 0.16606 14.6927 0.49818 14.3606C0.830301 14.0285 1.24184 13.8624 1.7328 13.8624C2.22376 13.8624 2.6353 14.0285 2.96742 14.3606C3.29954 14.6927 3.4656 15.1043 3.4656 15.5952V19.0608C3.4656 19.5518 3.29954 19.9633 2.96742 20.2954C2.6353 20.6276 2.22376 20.7936 1.7328 20.7936C1.24184 20.7936 0.830301 20.6276 0.49818 20.2954C0.16606 19.9633 0 19.5518 0 19.0608ZM20.7936 25.992V8.66401C20.7936 8.17305 20.9597 7.76151 21.2918 7.42938C21.6239 7.09726 22.0355 6.9312 22.5264 6.9312C23.0174 6.9312 23.4289 7.09726 23.761 7.42938C24.0932 7.76151 24.2592 8.17305 24.2592 8.66401V25.992C24.2592 26.483 24.0932 26.8945 23.761 27.2266C23.4289 27.5588 23.0174 27.7248 22.5264 27.7248C22.0355 27.7248 21.6239 27.5588 21.2918 27.2266C20.9597 26.8945 20.7936 26.483 20.7936 25.992ZM27.7248 19.0608V15.5952C27.7248 15.1043 27.8909 14.6927 28.223 14.3606C28.5551 14.0285 28.9667 13.8624 29.4576 13.8624C29.9486 13.8624 30.3601 14.0285 30.6922 14.3606C31.0244 14.6927 31.1904 15.1043 31.1904 15.5952V19.0608C31.1904 19.5518 31.0244 19.9633 30.6922 20.2954C30.3601 20.6276 29.9486 20.7936 29.4576 20.7936C28.9667 20.7936 28.5551 20.6276 28.223 20.2954C27.8909 19.9633 27.7248 19.5518 27.7248 19.0608Z" fill="var(--fill-0, white)"/>
</svg>
