<svg preserveAspectRatio="none" width="100%" height="100%" overflow="visible" style="display: block;" viewBox="0 0 39.375 29.75" fill="none" xmlns="http://www.w3.org/2000/svg">
<g id="Layer_1" clip-path="url(#clip0_0_78)">
<path id="Vector" d="M30.2062 0H0V0.451308C0.632223 0.478568 1.15449 0.581552 1.56681 0.757229C1.97913 0.935935 2.33037 1.14493 2.62052 1.39027C2.91067 1.63561 3.13668 1.88096 3.30161 2.1263C3.46654 2.37164 3.59176 2.57761 3.67423 2.74117C3.83915 3.06829 3.99797 3.3833 4.14763 3.68316C4.29729 3.98302 4.45 4.29803 4.60271 4.62515C4.75237 4.95228 4.91119 5.30666 5.07611 5.6883C5.24104 6.06994 5.41819 6.52125 5.61366 7.0392C6.30085 8.78688 6.98805 10.5255 7.67831 12.258C8.36551 13.9906 9.08019 15.7837 9.82542 17.6404C10.5676 19.4971 11.3312 21.4265 12.1161 23.4317C12.901 25.4368 13.747 27.5449 14.6541 29.753H15.1489L17.1708 25.661C17.7756 24.1071 18.4169 22.4624 19.0889 20.7299C19.7639 18.9974 20.4419 17.2709 21.1321 15.5535C21.2146 15.3445 21.3001 15.1385 21.3826 14.9295C21.5353 15.1718 21.6727 15.396 21.801 15.5929C22.0759 16.029 22.2408 16.2895 22.2958 16.3713C22.2958 17.8736 22.2897 19.1488 22.2744 20.1968C22.2592 21.2478 22.2408 22.1535 22.2133 22.9168C22.2133 23.3529 22.2072 23.8042 22.192 24.2677C22.1767 24.7311 22.1492 25.1672 22.1095 25.5762C22.0698 25.9851 22.0118 26.3546 21.9446 26.6817C21.8743 27.0088 21.7735 27.2421 21.6361 27.3784C21.0314 28.0599 20.4602 28.49 19.9227 28.6687C19.3851 28.8474 18.759 28.9746 18.0443 29.0564V29.4653H30.7529V29.0564C30.1482 28.9473 29.516 28.7989 28.8563 28.6051C28.1966 28.4142 27.659 28.0175 27.2467 27.4177C27.0268 27.1179 26.8955 26.5939 26.8558 25.8427C26.816 25.0915 26.7947 24.3222 26.7947 23.5316V15.3051C27.1245 14.8144 27.5796 14.1329 28.1569 13.2606C28.7341 12.3883 29.3327 11.4735 29.9527 10.5194C30.5727 9.56531 31.1775 8.64452 31.7669 7.75705C32.3595 6.86958 32.8206 6.16687 33.1505 5.64893C33.6453 4.88564 34.1065 4.20413 34.5341 3.60441C34.9617 3.00468 35.4076 2.48674 35.8749 2.05057C36.3422 1.61441 36.8522 1.26003 37.402 0.987426C37.9517 0.714824 38.6114 0.524002 39.3842 0.414961V0H30.2154H30.2062ZM19.4432 1.29032C19.6631 1.08435 19.9532 0.92079 20.3106 0.799633C20.6679 0.675448 21.0527 0.587609 21.4651 0.533089C21.4712 0.533089 21.4773 0.533089 21.4864 0.533089C21.5903 0.551262 21.7002 0.572465 21.8102 0.596696C22.2653 0.693621 22.6959 0.829923 23.1113 1.0056C23.5236 1.18431 23.8687 1.40845 24.1436 1.68105C24.4185 1.95365 24.5559 2.29592 24.5559 2.70482C24.5559 3.00468 24.4735 3.54383 24.3085 4.32226C24.1436 5.10069 23.7863 6.23956 23.2365 7.73888C23.0838 8.14172 22.9341 8.53851 22.7845 8.93227C22.5279 8.51428 22.2775 8.1084 22.0454 7.71767C21.633 7.02102 21.2757 6.42736 20.9733 5.93667C20.5335 5.20065 20.112 4.47068 19.715 3.74677C19.3149 3.02286 19.1164 2.48371 19.1164 2.12933C19.1164 1.77494 19.2263 1.49628 19.4462 1.29032H19.4432ZM19.211 18.2129C18.646 19.6304 18.1787 20.8177 17.8092 21.7718C17.4365 22.7259 17.183 23.356 17.0456 23.6558C16.7432 22.838 16.3309 21.787 15.8086 20.5057C15.2864 19.2245 14.7274 17.8403 14.138 16.3531C13.5455 14.8659 12.9468 13.3515 12.3421 11.8097C11.7374 10.268 11.1937 8.85049 10.7111 7.55411C10.2286 6.25774 9.83764 5.15521 9.53527 4.24048C9.23291 3.32575 9.08019 2.74723 9.08019 2.50188C9.08019 2.09298 9.22374 1.75071 9.51389 1.47811C9.80404 1.20551 10.1339 0.993484 10.5035 0.845067C10.7325 0.7542 10.9555 0.681506 11.1784 0.623956C11.3464 0.690592 11.5114 0.766315 11.6641 0.863241C12.0917 1.13584 12.5223 1.50537 12.9652 1.96879C13.405 2.43222 13.8387 2.99257 14.2663 3.64681C14.6938 4.30106 15.1673 5.02497 15.6895 5.81552C15.9644 6.22442 16.3095 6.75751 16.7219 7.41175C17.1342 8.066 17.574 8.76871 18.0413 9.51988C18.5086 10.271 18.982 11.0404 19.4645 11.8309C19.9441 12.6215 20.3869 13.3393 20.784 13.9784C20.7992 14.0057 20.8145 14.0269 20.8298 14.0542C20.2403 15.5868 19.6997 16.974 19.208 18.2159L19.211 18.2129ZM33.1841 3.39541C33.0741 3.72254 32.9428 4.0436 32.7932 4.35558C32.6404 4.67059 32.4847 4.97045 32.3198 5.25517C32.1548 5.54291 32.0021 5.79431 31.8647 6.0124C31.6173 6.44856 31.2508 7.04828 30.7713 7.81157C30.2887 8.57486 29.7817 9.37449 29.2442 10.2044C28.7066 11.0374 28.1782 11.8552 27.656 12.6609C27.1337 13.4666 26.6939 14.1269 26.3365 14.6448C25.8967 13.9088 25.4203 13.1303 24.9133 12.3125C24.4032 11.4947 23.9023 10.6951 23.4075 9.91969C23.4075 9.91969 23.4075 9.91969 23.4075 9.91667C23.9695 8.54154 24.4918 7.27545 24.9713 6.13658C25.3012 5.34603 25.5974 4.69179 25.8601 4.17082C26.1197 3.65287 26.3488 3.22276 26.5412 2.8805C26.7336 2.54126 26.9046 2.28077 27.0573 2.10207C27.207 1.92639 27.3261 1.79615 27.4086 1.71437C27.491 1.60532 27.7995 1.38724 28.337 1.06012C28.8624 0.739055 29.4732 0.539147 30.1726 0.454337C30.4567 0.496742 30.7468 0.542176 31.0461 0.590638C31.4585 0.660303 31.8372 0.760258 32.1823 0.896559C32.5244 1.03286 32.8084 1.22368 33.0283 1.46902C33.2482 1.71437 33.3582 2.05663 33.3582 2.4928C33.3582 2.7654 33.3032 3.06526 33.1933 3.39238L33.1841 3.39541Z" fill="var(--fill-0, white)"/>
</g>
<defs>
<clipPath id="clip0_0_78">
<rect width="39.375" height="29.75" fill="white"/>
</clipPath>
</defs>
</svg>
