<svg preserveAspectRatio="none" width="100%" height="100%" overflow="visible" style="display: block;" viewBox="0 0 32.9232 32.9232" fill="none" xmlns="http://www.w3.org/2000/svg">
<path id="pause_circle" d="M13.2633 22.9596C13.6315 22.9596 13.9401 22.835 14.189 22.5858C14.4377 22.3368 14.562 22.0282 14.562 21.66V11.2632C14.562 10.895 14.4374 10.5864 14.1882 10.3375C13.9392 10.0882 13.6305 9.96361 13.262 9.96361C12.8938 9.96361 12.5852 10.0882 12.3362 10.3375C12.0876 10.5864 11.9633 10.895 11.9633 11.2632V21.66C11.9633 22.0282 12.0877 22.3368 12.3367 22.5858C12.5859 22.835 12.8948 22.9596 13.2633 22.9596ZM19.6612 22.9596C20.0294 22.9596 20.338 22.835 20.587 22.5858C20.8356 22.3368 20.96 22.0282 20.96 21.66V11.2632C20.96 10.895 20.8355 10.5864 20.5865 10.3375C20.3373 10.0882 20.0284 9.96361 19.6599 9.96361C19.2917 9.96361 18.9831 10.0882 18.7342 10.3375C18.4855 10.5864 18.3612 10.895 18.3612 11.2632V21.66C18.3612 22.0282 18.4858 22.3368 18.735 22.5858C18.984 22.835 19.2927 22.9596 19.6612 22.9596ZM16.4646 32.9232C14.1877 32.9232 12.0476 32.4912 10.0442 31.6271C8.04078 30.763 6.29815 29.5903 4.81632 28.1091C3.33449 26.6278 2.16124 24.8859 1.29657 22.8834C0.432189 20.8808 0 18.7413 0 16.4646C0 14.1877 0.432045 12.0476 1.29614 10.0442C2.16023 8.04078 3.3329 6.29815 4.81416 4.81632C6.29541 3.33449 8.03731 2.16124 10.0399 1.29657C12.0424 0.432189 14.182 0 16.4586 0C18.7355 0 20.8756 0.432044 22.879 1.29613C24.8825 2.16022 26.6251 3.3329 28.1069 4.81416C29.5887 6.29541 30.762 8.03731 31.6267 10.0399C32.491 12.0424 32.9232 14.182 32.9232 16.4586C32.9232 18.7355 32.4912 20.8756 31.6271 22.879C30.763 24.8825 29.5903 26.6251 28.1091 28.1069C26.6278 29.5887 24.8859 30.762 22.8834 31.6267C20.8808 32.491 18.7413 32.9232 16.4646 32.9232ZM16.4616 30.324C20.3315 30.324 23.6094 28.9811 26.2953 26.2953C28.9811 23.6094 30.324 20.3315 30.324 16.4616C30.324 12.5917 28.9811 9.31381 26.2953 6.62797C23.6094 3.94212 20.3315 2.5992 16.4616 2.5992C12.5917 2.5992 9.31381 3.94212 6.62797 6.62797C3.94212 9.31381 2.5992 12.5917 2.5992 16.4616C2.5992 20.3315 3.94212 23.6094 6.62797 26.2953C9.31381 28.9811 12.5917 30.324 16.4616 30.324Z" fill="var(--fill-0, white)"/>
</svg>
