<svg preserveAspectRatio="none" width="100%" height="100%" overflow="visible" style="display: block;" viewBox="0 0 32.9232 32.9232" fill="none" xmlns="http://www.w3.org/2000/svg">
<path id="play_circle" d="M14.3723 22.2929L21.9199 17.4445C22.2908 17.2092 22.4762 16.8821 22.4762 16.4633C22.4762 16.0446 22.2908 15.7164 21.9199 15.4787L14.3723 10.6303C13.9836 10.3637 13.5847 10.3424 13.1758 10.5662C12.7671 10.79 12.5628 11.139 12.5628 11.6132V21.31C12.5628 21.7842 12.7671 22.1332 13.1758 22.357C13.5847 22.5809 13.9836 22.5595 14.3723 22.2929ZM16.4646 32.9232C14.1877 32.9232 12.0476 32.4912 10.0442 31.6271C8.04078 30.763 6.29815 29.5903 4.81632 28.1091C3.33449 26.6278 2.16124 24.8859 1.29657 22.8834C0.432189 20.8808 0 18.7413 0 16.4646C0 14.1877 0.432045 12.0476 1.29614 10.0442C2.16023 8.04078 3.3329 6.29815 4.81416 4.81632C6.29541 3.33449 8.03731 2.16124 10.0399 1.29657C12.0424 0.432189 14.182 0 16.4586 0C18.7355 0 20.8756 0.432044 22.879 1.29613C24.8825 2.16022 26.6251 3.3329 28.1069 4.81416C29.5887 6.29541 30.762 8.03731 31.6267 10.0399C32.491 12.0424 32.9232 14.182 32.9232 16.4586C32.9232 18.7355 32.4912 20.8756 31.6271 22.879C30.763 24.8825 29.5903 26.6251 28.1091 28.1069C26.6278 29.5887 24.8859 30.762 22.8834 31.6267C20.8808 32.491 18.7413 32.9232 16.4646 32.9232ZM16.4616 30.324C20.3315 30.324 23.6094 28.9811 26.2953 26.2953C28.9811 23.6094 30.324 20.3315 30.324 16.4616C30.324 12.5917 28.9811 9.31381 26.2953 6.62797C23.6094 3.94212 20.3315 2.5992 16.4616 2.5992C12.5917 2.5992 9.31381 3.94212 6.62797 6.62797C3.94212 9.31381 2.5992 12.5917 2.5992 16.4616C2.5992 20.3315 3.94212 23.6094 6.62797 26.2953C9.31381 28.9811 12.5917 30.324 16.4616 30.324Z" fill="var(--fill-0, white)"/>
</svg>
