<svg preserveAspectRatio="none" width="100%" height="100%" overflow="visible" style="display: block;" viewBox="0 0 34.656 31.1904" fill="none" xmlns="http://www.w3.org/2000/svg">
<path id="spatial_tracking" d="M17.346 19.3225C15.7593 19.3225 14.4009 18.7415 13.271 17.5794C12.141 16.4173 11.5761 15.0204 11.5761 13.3885C11.5761 11.7567 12.141 10.3597 13.271 9.19765C14.4009 8.03558 15.7593 7.45455 17.346 7.45455C18.9328 7.45455 20.2911 8.03558 21.4211 9.19765C22.5511 10.3597 23.116 11.7567 23.116 13.3885C23.116 15.0204 22.5511 16.4173 21.4211 17.5794C20.2911 18.7415 18.9328 19.3225 17.346 19.3225ZM5.80606 27.0366C5.80606 26.2207 6.01041 25.4543 6.41912 24.7372C6.82783 24.0202 7.3928 23.4763 8.11405 23.1054C9.34018 22.4625 10.7226 21.9186 12.2612 21.4736C13.7999 21.0285 15.4948 20.806 17.346 20.806C19.1973 20.806 20.8922 21.0285 22.4309 21.4736C23.9695 21.9186 25.3519 22.4625 26.578 23.1054C27.2993 23.4763 27.8643 24.0202 28.273 24.7372C28.6817 25.4543 28.886 26.2207 28.886 27.0366V28.2234C28.886 29.0394 28.6035 29.7378 28.0386 30.3189C27.4736 30.8999 26.7944 31.1904 26.001 31.1904H8.69105C7.89768 31.1904 7.2185 30.8999 6.65352 30.3189C6.08855 29.7378 5.80606 29.0394 5.80606 28.2234V27.0366ZM8.69105 28.2234H26.001V27.0366C26.001 26.7647 25.9349 26.5174 25.8027 26.2949C25.6705 26.0724 25.4962 25.8993 25.2798 25.7757C24.4143 25.3306 23.3024 24.8856 21.944 24.4405C20.5857 23.9955 19.053 23.773 17.346 23.773C15.6391 23.773 14.1064 23.9955 12.7481 24.4405C11.3897 24.8856 10.2778 25.3306 9.4123 25.7757C9.19593 25.8993 9.02163 26.0724 8.8894 26.2949C8.75717 26.5174 8.69105 26.7647 8.69105 27.0366V28.2234ZM17.346 16.3555C18.1394 16.3555 18.8186 16.065 19.3836 15.484C19.9486 14.9029 20.231 14.2044 20.231 13.3885C20.231 12.5726 19.9486 11.8741 19.3836 11.2931C18.8186 10.7121 18.1394 10.4215 17.346 10.4215C16.5527 10.4215 15.8735 10.7121 15.3085 11.2931C14.7435 11.8741 14.461 12.5726 14.461 13.3885C14.461 14.2044 14.7435 14.9029 15.3085 15.484C15.8735 16.065 16.5527 16.3555 17.346 16.3555ZM5.51756 5.71145C4.98864 6.25539 4.37558 6.6819 3.67837 6.99096C2.98116 7.30002 2.23587 7.45455 1.4425 7.45455C1.03379 7.45455 0.691197 7.31238 0.414718 7.02805C0.138239 6.74371 0 6.39138 0 5.97106C0 5.55073 0.138239 5.1984 0.414718 4.91407C0.691197 4.62973 1.03379 4.48756 1.4425 4.48756C1.85121 4.48756 2.22385 4.40721 2.56043 4.2465C2.89702 4.08578 3.19754 3.86944 3.462 3.59747C3.72645 3.3255 3.93081 3.01643 4.07506 2.67029C4.21931 2.32414 4.29143 1.9409 4.29143 1.52058C4.29143 1.10026 4.43568 0.741746 4.72418 0.445048C5.01268 0.148349 5.36129 0 5.76999 0C6.1787 0 6.5213 0.148349 6.79777 0.445048C7.07425 0.741746 7.21249 1.10026 7.21249 1.52058C7.21249 2.3365 7.06223 3.10297 6.76171 3.81999C6.46119 4.53701 6.04647 5.1675 5.51756 5.71145ZM9.62868 9.9394C8.57085 11.0273 7.34472 11.8803 5.95031 12.4984C4.55589 13.1165 3.05329 13.4256 1.4425 13.4256C1.03379 13.4256 0.691197 13.2834 0.414718 12.9991C0.138239 12.7148 0 12.3624 0 11.9421C0 11.5218 0.138239 11.1695 0.414718 10.8851C0.691197 10.6008 1.03379 10.4586 1.4425 10.4586C2.66862 10.4586 3.80459 10.2237 4.8504 9.75396C5.89621 9.28419 6.80378 8.64134 7.57312 7.82542C8.34245 7.0095 8.95551 6.06996 9.4123 5.00679C9.86909 3.94362 10.0975 2.78155 10.0975 1.52058C10.0975 1.10026 10.2417 0.741746 10.5302 0.445048C10.8187 0.148349 11.1673 0 11.5761 0C11.9848 0 12.3274 0.148349 12.6038 0.445048C12.8803 0.741746 13.0185 1.10026 13.0185 1.52058C13.0185 3.15242 12.718 4.69154 12.117 6.13795C11.5159 7.58435 10.6865 8.8515 9.62868 9.9394ZM25.0273 9.9394C23.9695 8.8515 23.1401 7.59054 22.539 6.15649C21.938 4.72245 21.6255 3.17715 21.6014 1.52058C21.6014 1.10026 21.7457 0.741746 22.0342 0.445048C22.3227 0.148349 22.6713 0 23.08 0C23.4887 0 23.8313 0.148349 24.1078 0.445048C24.3842 0.741746 24.5225 1.10026 24.5225 1.52058C24.5225 2.75682 24.7509 3.91271 25.2077 4.98824C25.6645 6.06377 26.2895 7.0095 27.0829 7.82542C27.8763 8.64134 28.7959 9.28419 29.8417 9.75396C30.8875 10.2237 32.0114 10.4586 33.2135 10.4586C33.6222 10.4586 33.9648 10.6008 34.2413 10.8851C34.5178 11.1695 34.656 11.5218 34.656 11.9421C34.656 12.3624 34.5178 12.7148 34.2413 12.9991C33.9648 13.2834 33.6222 13.4256 33.2135 13.4256C31.6027 13.4256 30.1001 13.1165 28.7057 12.4984C27.3113 11.8803 26.0852 11.0273 25.0273 9.9394ZM29.1385 5.71145C28.6096 5.1675 28.1948 4.53701 27.8943 3.81999C27.5938 3.10297 27.4315 2.3365 27.4075 1.52058C27.4075 1.10026 27.5517 0.741746 27.8402 0.445048C28.1287 0.148349 28.4773 0 28.886 0C29.2947 0 29.6373 0.148349 29.9138 0.445048C30.1903 0.741746 30.3285 1.10026 30.3285 1.52058C30.3285 1.9409 30.4067 2.32414 30.5629 2.67029C30.7192 3.01643 30.9296 3.3255 31.194 3.59747C31.4585 3.86944 31.759 4.08578 32.0956 4.2465C32.4322 4.40721 32.8048 4.48756 33.2135 4.48756C33.6222 4.48756 33.9648 4.62973 34.2413 4.91407C34.5178 5.1984 34.656 5.55073 34.656 5.97106C34.656 6.39138 34.5178 6.74371 34.2413 7.02805C33.9648 7.31238 33.6222 7.45455 33.2135 7.45455C32.4202 7.45455 31.6749 7.30002 30.9777 6.99096C30.2804 6.6819 29.6674 6.25539 29.1385 5.71145Z" fill="var(--fill-0, white)"/>
</svg>
